<svg width="32" height="37" viewBox="0 0 32 37" fill="none" xmlns="http://www.w3.org/2000/svg">
<circle cx="16" cy="21" r="16" fill="#FFE7DE"/>
<path d="M29.8968 7.55307L29.8968 7.55318L29.9035 7.55656C30.2347 7.72215 30.4616 7.96002 30.5585 8.21429C30.6519 8.45935 30.6359 8.74784 30.4288 9.05859L30.4201 9.07154L30.4132 9.08546C30.2853 9.3413 29.9936 9.47727 29.6177 9.4912C29.2417 9.50512 28.8667 9.39048 28.6739 9.24584L28.6559 9.23232L28.6357 9.22224L28.3871 9.09795L28.0253 8.91705V9.32156V29.579H25.7896H5.90358H3.66783V9.32156V8.91705L3.30603 9.09795L2.80888 9.34652C2.58551 9.45821 2.32332 9.53258 2.07555 9.5078C1.84039 9.48429 1.59637 9.37014 1.38867 9.05859C1.19849 8.77332 1.22102 8.50145 1.35311 8.2613C1.49238 8.00807 1.75457 7.79523 2.01923 7.68936L2.03423 7.68336L2.04834 7.67548L14.6974 0.606865C14.901 0.552833 15.0713 0.478727 15.2143 0.416514C15.2518 0.400196 15.2874 0.384697 15.3213 0.370593C15.494 0.298649 15.6453 0.25 15.8466 0.25C16.0479 0.25 16.1992 0.298649 16.3719 0.370593C16.4057 0.384697 16.4413 0.400196 16.4788 0.416514C16.6223 0.478928 16.7933 0.553313 16.9977 0.607388L29.8968 7.55307ZM13.3608 24.6075H13.1108V24.8575V26.1004C13.1108 26.4164 13.0066 26.6604 12.8423 26.8247C12.6779 26.989 12.434 27.0932 12.118 27.0932V27.3432V27.5932H19.5752V27.3432V27.0932C19.2591 27.0932 19.0152 26.989 18.8509 26.8247C18.6866 26.6604 18.5823 26.4164 18.5823 26.1004V24.8575V24.6075H18.3323H13.3608ZM23.3038 23.8646H23.5538V23.6146V21.1289C23.5538 20.6992 23.4095 20.3217 23.1388 20.051C22.8681 19.7803 22.4906 19.636 22.0609 19.636H9.6322C9.20253 19.636 8.82504 19.7803 8.55434 20.051C8.28364 20.3217 8.13933 20.6992 8.13933 21.1289V23.6146V23.8646H8.38933H9.6322H12.118H19.5752H22.0609H23.3038ZM10.6356 18.5713L10.5391 18.8931H10.8751H20.9424H21.2678L21.1839 18.5787L20.1896 14.8501L20.1401 14.6645H19.9481H11.9937H11.8077L11.7542 14.8427L10.6356 18.5713ZM19.5752 24.6075H19.3252V24.8575V26.1004V26.3504H19.5752H22.0609H22.3109V26.1004V24.8575V24.6075H22.0609H19.5752ZM9.6322 24.6075H9.3822V24.8575V26.1004V26.3504H9.6322H12.118H12.368V26.1004V24.8575V24.6075H12.118H9.6322ZM25.7896 27.5932H26.0396V27.3432V7.95439V7.80658L25.91 7.73534L15.9671 2.26669L15.8466 2.20043L15.7261 2.26669L5.7831 7.73534L5.65358 7.80658V7.95439V27.3432V27.5932H5.90358H9.6322V27.3432V27.0932C9.31615 27.0932 9.0722 26.989 8.9079 26.8247C8.74359 26.6604 8.63933 26.4164 8.63933 26.1004V24.8575V24.6075H8.38933C8.07328 24.6075 7.82933 24.5032 7.66502 24.3389C7.50071 24.1746 7.39645 23.9307 7.39645 23.6146V21.1289C7.39645 20.0123 8.29551 19.0032 9.4085 18.8919L9.575 18.8752L9.62308 18.7149L11.0611 13.9216H20.6321L22.0701 18.7149L22.1181 18.8752L22.2846 18.8919C23.3976 19.0032 24.2967 20.0123 24.2967 21.1289V23.6146C24.2967 23.9307 24.1924 24.1746 24.0281 24.3389C23.8638 24.5032 23.6199 24.6075 23.3038 24.6075H23.0538V24.8575V26.1004C23.0538 26.4164 22.9496 26.6604 22.7852 26.8247C22.6209 26.989 22.377 27.0932 22.0609 27.0932V27.3432V27.5932H25.7896Z" fill="#F16A36" stroke="#EDEDED" stroke-width="0.5"/>
<path d="M10.2536 22.3717C10.5968 22.3717 10.8751 22.0935 10.8751 21.7503C10.8751 21.4071 10.5968 21.1288 10.2536 21.1288C9.91043 21.1288 9.6322 21.4071 9.6322 21.7503C9.6322 22.0935 9.91043 22.3717 10.2536 22.3717Z" fill="#F16A36"/>
<path d="M21.4394 22.3717C21.7826 22.3717 22.0609 22.0935 22.0609 21.7503C22.0609 21.4071 21.7826 21.1288 21.4394 21.1288C21.0962 21.1288 20.818 21.4071 20.818 21.7503C20.818 22.0935 21.0962 22.3717 21.4394 22.3717Z" fill="#F16A36"/>
<path d="M12.7394 22.3717H18.9537C19.3266 22.3717 19.5752 22.1231 19.5752 21.7503C19.5752 21.3774 19.3266 21.1288 18.9537 21.1288H12.7394C12.3665 21.1288 12.1179 21.3774 12.1179 21.7503C12.1179 22.1231 12.3665 22.3717 12.7394 22.3717Z" fill="#F16A36"/>
</svg>
