<svg id="Capa_1" enable-background="new 0 0 512 512" height="512" viewBox="0 0 512 512" width="512" xmlns="http://www.w3.org/2000/svg"><g><path d="m490.032 208.033c14.166-14.166 21.968-33 21.968-53.033s-7.802-38.868-21.967-53.033c-10.487-10.487-23.873-17.488-38.336-20.318.202-2.211.303-4.428.303-6.649 0-41.355-33.645-75-75-75s-75 33.645-75 75c0 2.223.102 4.442.303 6.655-5.233 1.031-10.339 2.627-15.248 4.75-4.916-2.12-10.063-3.721-15.357-4.756.201-2.211.302-4.428.302-6.649 0-41.355-33.645-75-75-75s-75 33.645-75 75c0 2.221.101 4.438.303 6.648-14.461 2.83-27.85 9.832-38.335 20.318-14.166 14.166-21.968 33.001-21.968 53.034s7.802 38.867 21.966 53.031c.897.896 1.83 1.774 2.802 2.635-3.142 7.695-4.768 15.922-4.768 24.334 0 35.841 29.159 65 65 65 12.881 0 24.888-3.782 35-10.271v42.271h-147c-8.284 0-15 6.716-15 15v75h-5c-8.284 0-15 6.716-15 15s6.716 15 15 15h25v45c0 8.284 6.716 15 15 15s15-6.716 15-15v-45h112v45c0 8.284 6.716 15 15 15s15-6.716 15-15v-45h30v45c0 8.284 6.716 15 15 15s15-6.716 15-15v-45h25c8.284 0 15-6.716 15-15s-6.716-15-15-15h-5v-75c0-8.284-6.716-15-15-15h-65v-42.271c10.112 6.489 22.119 10.271 35 10.271 15.105 0 29.012-5.194 40.061-13.87 11.283 8.931 25.181 13.87 39.939 13.87 12.881 0 24.888-3.782 35-10.271v207.271c0 8.284 6.716 15 15 15s15-6.716 15-15v-207.271c10.112 6.489 22.119 10.271 35 10.271 35.841 0 65-29.159 65-65 0-8.412-1.626-16.639-4.768-24.334.972-.859 1.904-1.736 2.8-2.633zm-228.032 213.967h-212v-60h212zm-15-152c-19.299 0-35-15.701-35-35v-52.5l34-25.5c6.627-4.971 7.971-14.373 3-21-4.971-6.629-14.373-7.97-21-3l-16 12v-30c0-8.284-6.716-15-15-15s-15 6.716-15 15v70l-16-12c-6.627-4.969-16.03-3.627-21 3-4.971 6.627-3.627 16.029 3 21l34 25.5v12.5c0 19.299-15.701 35-35 35s-35-15.701-35-35c0-7.17 2.226-14.115 6.438-20.086 2.402-3.406 3.279-7.658 2.42-11.736-.858-4.079-3.376-7.616-6.947-9.764-3.654-2.197-6.428-4.293-8.729-6.596-8.501-8.499-13.182-19.798-13.182-31.818s4.681-23.32 13.182-31.82c9.087-9.087 21.345-13.652 34.531-12.861 5.023.31 9.89-1.946 12.913-5.988 3.022-4.041 3.811-9.332 2.097-14.078-1.807-5.005-2.723-10.137-2.723-15.253 0-24.813 20.187-45 45-45s45 20.187 45 45c0 5.116-.916 10.248-2.723 15.252-1.714 4.746-.926 10.037 2.097 14.078 3.022 4.042 7.867 6.308 12.913 5.988 13.177-.78 25.445 3.773 34.531 12.861h.001c8.5 8.501 13.181 19.801 13.181 31.821s-4.681 23.319-13.183 31.82c-2.3 2.301-5.073 4.396-8.728 6.594-3.571 2.147-6.089 5.685-6.947 9.764-.859 4.078.018 8.33 2.42 11.736 4.212 5.971 6.438 12.916 6.438 20.086 0 19.299-15.701 35-35 35zm221.817-83.18c-2.3 2.301-5.073 4.396-8.728 6.594-3.571 2.147-6.089 5.685-6.947 9.764-.859 4.078.018 8.33 2.42 11.736 4.212 5.971 6.438 12.916 6.438 20.086 0 19.299-15.701 35-35 35s-35-15.701-35-35v-52.5l34-25.5c6.627-4.971 7.971-14.373 3-21-4.971-6.629-14.372-7.97-21-3l-16 12v-30c0-8.284-6.716-15-15-15s-15 6.716-15 15v120c0 19.299-15.701 35-35 35-7.801 0-15.173-2.601-21.208-7.313 3.975-8.405 6.208-17.789 6.208-27.687 0-8.412-1.626-16.639-4.768-24.334.972-.859 1.903-1.736 2.8-2.633 14.166-14.166 21.968-33 21.968-53.033 0-16.346-5.198-31.892-14.806-44.757.838.005 1.678.025 2.519.075 5.037.308 9.889-1.947 12.912-5.988 3.022-4.042 3.811-9.332 2.097-14.078-1.806-5.004-2.722-10.136-2.722-15.252 0-24.813 20.187-45 45-45s45 20.187 45 45c0 5.116-.916 10.248-2.723 15.252-1.714 4.746-.926 10.037 2.097 14.078 3.023 4.042 7.876 6.308 12.913 5.988 13.177-.78 25.445 3.773 34.532 12.861 8.5 8.501 13.181 19.801 13.181 31.821s-4.681 23.319-13.183 31.82z"/></g></svg>